<?xml version="1.0" encoding="UTF-8" standalone="no"?>
<!-- Created with Inkscape (http://www.inkscape.org/) -->

<svg
   width="1024"
   height="1024"
   viewBox="0 0 270.933 270.933"
   version="1.1"
   id="svg5"
   inkscape:export-filename="docs/logo/light.svg"
   inkscape:export-xdpi="96"
   inkscape:export-ydpi="96"
   inkscape:version="1.2.2 (b0a84865, 2022-12-01)"
   sodipodi:docname=".svg"
   xmlns:inkscape="http://www.inkscape.org/namespaces/inkscape"
   xmlns:sodipodi="http://sodipodi.sourceforge.net/DTD/sodipodi-0.dtd"
   xmlns:xlink="http://www.w3.org/1999/xlink"
   xmlns="http://www.w3.org/2000/svg"
   xmlns:svg="http://www.w3.org/2000/svg">
  <sodipodi:namedview
     id="namedview7"
     pagecolor="#ffffff"
     bordercolor="#000000"
     borderopacity="0.25"
     inkscape:showpageshadow="2"
     inkscape:pageopacity="0.0"
     inkscape:pagecheckerboard="0"
     inkscape:deskcolor="#d1d1d1"
     inkscape:document-units="mm"
     showgrid="false"
     inkscape:zoom="0.26047521"
     inkscape:cx="239.94606"
     inkscape:cy="483.73125"
     inkscape:window-width="1470"
     inkscape:window-height="892"
     inkscape:window-x="0"
     inkscape:window-y="64"
     inkscape:window-maximized="0"
     inkscape:current-layer="layer1" />
  <defs
     id="defs2">
    <linearGradient
       inkscape:collect="always"
       id="linearGradient49022">
      <stop
         style="stop-color:#3f5ef4;stop-opacity:1;"
         offset="0"
         id="stop49018" />
      <stop
         style="stop-color:#f43f5e;stop-opacity:1;"
         offset="1"
         id="stop49020" />
    </linearGradient>
    <linearGradient
       inkscape:collect="always"
       xlink:href="#linearGradient49022"
       id="linearGradient49024"
       x1="135.09763"
       y1="231.59593"
       x2="137.12917"
       y2="32.504692"
       gradientUnits="userSpaceOnUse"
       gradientTransform="matrix(0.8436652,0,0,0.8436652,17.038045,28.143468)" />
    <filter
       style="color-interpolation-filters:sRGB"
       inkscape:label="Drop Shadow"
       id="filter54419"
       x="-0.059703432"
       y="-0.042671025"
       width="1.1691597"
       height="1.1209012">
      <feFlood
         flood-opacity="0.501961"
         flood-color="rgb(50,50,50)"
         result="flood"
         id="feFlood54409" />
      <feComposite
         in="flood"
         in2="SourceGraphic"
         operator="in"
         result="composite1"
         id="feComposite54411" />
      <feGaussianBlur
         in="composite1"
         stdDeviation="3"
         result="blur"
         id="feGaussianBlur54413" />
      <feOffset
         dx="6"
         dy="6"
         result="offset"
         id="feOffset54415" />
      <feComposite
         in="SourceGraphic"
         in2="offset"
         operator="over"
         result="composite2"
         id="feComposite54417" />
    </filter>
  </defs>
  <g
     inkscape:label="Layer 1"
     inkscape:groupmode="layer"
     id="layer1">
    <rect
       style="display:none;fill:#030712;fill-opacity:1;stroke-width:0.244379"
       id="rect5540"
       width="270.99966"
       height="270.99966"
       x="0"
       y="0" />
    <path
       id="rect19516"
       style="fill:url(#linearGradient49024);fill-opacity:1;stroke-width:0.182996;filter:url(#filter54419)"
       d="M 89.487677,55.14085 A 13.393185,13.393185 0 0 0 76.094492,68.534036 v 37.757704 c 0,7.39685 4.255543,9.16878 9.511254,3.9639 6.302041,-6.2411 12.610411,-12.47636 18.921794,-18.70817 5.26342,-5.197076 9.53218,-15.40427 9.53218,-22.801114 v -0.21232 A 13.393185,13.393185 0 0 0 100.66654,55.14085 Z m 77.421063,0 a 21.783282,21.783282 0 0 0 -15.2888,6.26672 l -72.90218,71.83316 a 8.7977846,8.7977846 0 0 0 0,12.53344 l 72.90218,71.83273 a 21.783362,21.783362 0 0 0 15.2888,6.26672 h 26.17731 a 3.6041852,3.6041852 0 0 0 2.50207,-6.1987 l -74.62079,-71.96919 a 8.6115607,8.6115607 0 0 1 0,-12.39698 l 74.62079,-71.969628 a 3.6041987,3.6041987 0 0 0 -2.50207,-6.198272 z m -86.622774,110.6952 c -2.530461,-0.1009 -4.191474,2.32382 -4.191474,6.94684 v 37.69754 a 13.393185,13.393185 0 0 0 13.393185,13.39319 h 11.178863 a 13.393185,13.393185 0 0 0 13.39318,-13.39319 v -0.22714 c 0,-7.39684 -4.26931,-17.60398 -9.53916,-22.79457 -6.427023,-6.33038 -12.870863,-12.67399 -18.911762,-18.64278 -1.97312,-1.94955 -3.804555,-2.91935 -5.322832,-2.97989 z"
       transform="matrix(1.4726193,0,0,1.4726193,-70.958451,-73.44629)" />
  </g>
</svg>
